<?xml version="1.0" encoding="UTF-8" standalone="no"?>
<!-- Created with Inkscape (http://www.inkscape.org/) -->

<svg
   width="259"
   height="59"
   viewBox="0 0 68.527082 15.610417"
   version="1.1"
   id="svg5"
   xml:space="preserve"
   xmlns="http://www.w3.org/2000/svg"
   xmlns:svg="http://www.w3.org/2000/svg"><defs
     id="defs2" /><g
     id="layer1"><g
       id="Layer1000"
       transform="matrix(0.35277778,0,0,0.35277778,18.599583,48.723277)"><g
         id="g448"
         transform="matrix(0.96231652,0,0,0.96231652,-93.230867,-347.95695)"><path
           d="m 46.7701,258.7797 c 5.0915,0 10.1829,0 15.2743,0 9.0004,0 11.7887,-12.5149 6.8254,-14.4179 3.3769,0 7.3095,-12.7115 -4.8117,-12.7115 -4.1538,0 -8.3075,0 -12.4613,0 -1.6089,9.0431 -3.2178,18.0863 -4.8267,27.1294 z m 10.6506,-15.7223 h 4.7922 c 1.3332,0 2.6202,-1.0808 2.8746,-2.414 0.2544,-1.3332 -0.6202,-2.4139 -1.9534,-2.4139 h -4.8382 z m -1.6398,9.1657 h 4.7921 c 1.3332,0 2.6202,-1.0808 2.8746,-2.414 0.2544,-1.3332 -0.6201,-2.414 -1.9533,-2.414 H 56.656 Z"
           style="fill:#ffde2f;fill-rule:evenodd"
           id="path130" /><path
           d="m 73.0999,258.7797 c 2.0466,0 4.0933,0 6.1399,0 0.9754,0 2.1497,-1.6026 2.271,-3.1319 l 1.0879,-6.1146 h 3.4197 l 1.756,6.1146 c 0.2658,1.5293 1.5915,3.1319 2.5669,3.1319 2.0466,0 4.0933,0 6.1399,0 l -2.8838,-10.5868 c 3.6483,-0.9118 6.3717,-4.2264 6.3717,-8.1468 v -2e-4 c 0,-4.6176 -3.7779,-8.3956 -8.3956,-8.3956 h -2.4821 -6.5052 -4.6596 c -1.6089,9.0431 -3.2178,18.0863 -4.8267,27.1294 z m 10.7246,-15.5931 h 5.1179 c 1.4238,0 2.7983,-1.1192 3.07,-2.4999 0.2717,-1.3807 -0.6623,-2.4999 -2.0862,-2.4999 h -5.1671 z"
           style="fill:#ffde2f;fill-rule:evenodd"
           id="path132" /><path
           d="m 101.6976,258.7866 c 1.9924,0 3.9847,0 5.977,0 l 2.7386,-15.6815 c 1.4656,-7.2761 11.869,-7.8456 10.1333,0.4882 l -2.7096,15.1933 c 1.9923,0 3.9846,0 5.9769,0 l 2.7301,-15.3076 c 1.2831,-6.8398 10.5031,-8.2121 10.0229,-2.1204 l -1.7063,11.676 c -0.7993,4.5504 2.9588,5.752 4.9512,5.752 l 2.2445,-14.3353 c 2.0385,-12.5321 -11.2986,-16.3794 -17.6383,-9.0314 -2.2834,-3.6509 -9.8212,-5.1355 -14.4927,-1.341 -2.2431,-1.7987 -3.5469,-1.6695 -3.9051,0.4711 -1.4408,8.0788 -2.8817,16.1577 -4.3225,24.2366 z"
           style="fill:#ffffff;fill-rule:evenodd"
           id="path134" /><path
           d="m 159.4184,231.6488 c 3.631,0 6.8478,1.447 9.1431,3.7988 0.9318,-0.7592 1.8636,-1.5184 2.7953,-2.2777 0.432,-0.3878 0.883,-0.4273 1.516,-0.4486 0.3509,0 0.7018,0 1.0528,0 0.6471,0 0.7298,0.4281 0.6384,0.9794 -1.3572,7.9386 -2.7144,15.8772 -4.0716,23.8157 -0.1476,0.8256 -0.2844,1.3507 -1.0233,1.3508 -1.0666,0 -2.1333,0 -3.1999,0 -0.5182,-0.009 -0.8048,-0.26 -1.1311,-0.6728 -0.279,-0.3268 -0.558,-0.6536 -0.837,-0.9803 -1.9244,0.991 -4.085,1.5526 -6.3459,1.5526 -7.4385,0 -13.1409,-6.0705 -12.7369,-13.5589 0.4041,-7.4884 6.7616,-13.559 14.2001,-13.559 z m -0.173,6.0599 c 4.1688,0 7.3647,3.3575 7.1384,7.4991 -0.2266,4.1416 -3.7896,7.4991 -7.9584,7.4991 -4.1689,0 -7.3648,-3.3575 -7.1384,-7.4991 0.2265,-4.1416 3.7895,-7.4991 7.9584,-7.4991 z"
           style="fill:#ffffff;fill-rule:evenodd"
           id="path136" /><path
           d="m 174.5021,258.7866 c 1.9924,0 3.9846,0 5.977,0 l 2.7386,-15.6815 c 1.3417,-6.6608 10.3812,-7.5958 9.9202,-1.7465 l -1.7063,11.676 c -0.7994,4.5504 2.9587,5.752 4.9511,5.752 l 2.4468,-14.3537 c 2.5343,-12.1907 -8.5527,-15.4231 -16.0999,-10.354 -2.243,-1.7987 -3.5469,-1.6695 -3.905,0.4711 -1.4408,8.0788 -2.8817,16.1577 -4.3225,24.2366 z"
           style="fill:#ffffff;fill-rule:evenodd"
           id="path138" /><path
           d="M 201.02235,259.02216 205.689,230.4908 c 3.0283,1.15845 5.34294,1.86997 4.51311,5.51452 l -3.48779,23.6389 c -2.63551,-0.35432 -2.83352,-0.3015 -5.69197,-0.62206 z"
           style="fill:#ffffff;fill-rule:evenodd"
           id="path140" /><path
           d="m 226.4359,231.6488 c 3.631,0 6.8478,1.447 9.1431,3.7988 0.9318,-0.7592 1.8636,-1.5184 2.7953,-2.2777 0.4319,-0.3878 0.883,-0.4273 1.5159,-0.4486 0.351,0 0.7019,0 1.0528,0 0.6472,0 0.7299,0.4281 0.6385,0.9794 -1.3572,7.9386 -2.7144,15.8772 -4.0716,23.8157 -0.1476,0.8256 -0.2844,1.3507 -1.0233,1.3508 -1.0666,0 -2.1333,0 -3.1999,0 -0.5183,-0.009 -0.8048,-0.26 -1.1311,-0.6728 -0.279,-0.3268 -0.558,-0.6536 -0.8371,-0.9803 -1.9244,0.991 -4.0849,1.5526 -6.3458,1.5526 -7.4385,0 -13.141,-6.0705 -12.7369,-13.5589 0.404,-7.4884 6.7616,-13.559 14.2001,-13.559 z m -0.1731,6.0599 c 4.1689,0 7.3648,3.3575 7.1384,7.4991 -0.2265,4.1416 -3.7895,7.4991 -7.9584,7.4991 -4.1689,0 -7.3647,-3.3575 -7.1383,-7.4991 0.2264,-4.1416 3.7895,-7.4991 7.9583,-7.4991 z"
           style="fill:#ffffff;fill-rule:evenodd"
           id="path142" /><path
           d="m 209.6893,221.1785 a 3.8939,3.8939 0 0 1 3.8939,3.8939 3.8939,3.8939 0 1 1 -3.8939,-3.8939 z"
           style="fill:#ffffff;fill-rule:evenodd"
           id="path144" /></g></g></g></svg>
