<svg
      xmlns="http://www.w3.org/2000/svg"
      width="250"
      height="120"
      version="1.1"
      viewBox="0 0 187.854 55.563"
      xmlSpace="preserve"
    >
      <g>
        <path
          fill="#fff"
          strokeWidth="0"
          d="M170.645.142a4.353 4.353 0 00-3.403 1.638l-.003.003c-1.714 1.122-13.565 8.88-14.985 9.895-1.523 1.088-4.353.98-5.66 0-1.283-.963-15.16-9.628-15.625-9.918a4.353 4.353 0 00-7.272 1.416l-.063.014-10.99 45.159.003.002a4.353 4.353 0 005.21 5.219h63.352a4.353 4.353 0 004.613-6.626L174.995 4.58l.003-.086a4.353 4.353 0 00-4.352-4.352zm-68.448 1.633L72.33 2.2a4.353 4.353 0 00-5.224 3.554l-.058.046V50.2l.012.011a4.353 4.353 0 004.344 4.124 4.352 4.352 0 001.424-.243l27.76-.386h.003a4.353 4.353 0 003.62-7.83l.054-.246-5.439-5.225s-.437-.87-.437-1.959c0-1.088.872-2.502.872-2.502l4.667-4.764a4.353 4.353 0 002.296-3.832 4.353 4.353 0 00-2.71-4.032h-.004l-4.904-5.22-.435-1.738.217-1.416.873-1.307 4.31-3.308a4.353 4.353 0 002.87-4.09 4.353 4.353 0 00-4.195-4.35zm-96.522.543a4.353 4.353 0 00-4.352 4.353c0 1.386.369 2.543 1.34 3.876l24.202 40.95c1.287 1.805 2.39 3.922 4.711 3.924 2.238-.03 3.657-2.234 4.335-3.998l24.077-41.214c.808-1.34 1.186-2.22 1.186-3.538a4.353 4.353 0 00-4.97-4.307l-.037-.046-48.48.2c-.583-.276-1.366-.2-2.011-.2z"
        ></path>
      </g>
    </svg>
